# xmcd
#
# Track frame offsets:
#	150
#	25579
#	45113
#	78666
#	105590
#	126882
#	154042
#	199500
#	221559
#	244182
#	265111
#
# Disc length: 4050 seconds
#
# Revision: 0
# Processed by: cddbd v1.4PL0 Copyright (c) Steve Scherf et al.
# Submitted via: audiograbber 1.81.03
#
DISCID=850fd00b
DTITLE=Made In Brazil - Fogo Na Madeira
DYEAR=2001
DGENRE=Blues
TTITLE0=Tchau Baby, Bye Bye
TTITLE1=Rock de São Paulo
TTITLE2=Paulicéia Desvairada
TTITLE3=Os Bons Tempos Voltaram
TTITLE4=Remédio Prá Dormir
TTITLE5=Rock Da Pompéia
TTITLE6=Vai Trabalhar Vagabundo
TTITLE7=Tô à Tôa
TTITLE8=Jack o Estripador
TTITLE9=Anjo da Guarda
TTITLE10=Minha Vida é Rock'n'Roll
EXTD=
EXTT0=
EXTT1=
EXTT2=
EXTT3=
EXTT4=
EXTT5=
EXTT6=
EXTT7=
EXTT8=
EXTT9=
EXTT10=
PLAYORDER=
